<?xml version="1.0" encoding="UTF-8"?>
<!DOCTYPE svg PUBLIC "-//W3C//DTD SVG 1.1//EN" "http://www.w3.org/Graphics/SVG/1.1/DTD/svg11.dtd">
<!-- Creator: CorelDRAW (OEM Version) -->
<svg xmlns="http://www.w3.org/2000/svg" xml:space="preserve" width="500px" height="500px" version="1.1" shape-rendering="geometricPrecision" text-rendering="geometricPrecision" image-rendering="optimizeQuality" fill-rule="evenodd" clip-rule="evenodd"
viewBox="0 0 36.46 36.46"
 xmlns:xlink="http://www.w3.org/1999/xlink"
 xmlns:xodm="http://www.corel.com/coreldraw/odm/2003">
 <defs>
    <linearGradient id="id0" gradientUnits="userSpaceOnUse" x1="0" y1="18.23" x2="36.46" y2="18.23">
     <stop offset="0" stop-opacity="1" stop-color="#00285A"/>
     <stop offset="0.741176" stop-opacity="1" stop-color="#122C5A"/>
     <stop offset="1" stop-opacity="1" stop-color="#24305A"/>
    </linearGradient>
 </defs>
 <g id="Layer_x0020_1">
  <metadata id="CorelCorpID_0Corel-Layer"/>
  <g id="_1873643644512">
   <path fill="url(#id0)" d="M4.76 0l26.95 0c2.61,0 4.75,2.14 4.75,4.76l0 26.95c0,2.61 -2.14,4.75 -4.75,4.75l-26.95 0c-2.62,0 -4.76,-2.14 -4.76,-4.75l0 -26.95c0,-2.62 2.14,-4.76 4.76,-4.76z"/>
   <path fill="#FEFEFE" d="M4.38 26.97l15.8 0.01c-0.05,-0.32 -1.09,-1.99 -1.29,-2.34l-2.19 -0.01 -2.35 -4.05 -3.03 0c-0.18,0.17 -2.68,4.5 -2.74,4.75 0.27,0.02 0.59,0.04 0.8,-0.03l2.32 -3.98 2.23 0 2.34 4.06 2.19 0.01c0.15,0.23 0.38,0.58 0.45,0.84l-13.22 0c0.13,-0.83 9.9,-17.27 11.6,-20.21 1.49,-2.61 1.4,-1.87 0.93,-2.93 -0.3,0.15 -1.64,2.68 -1.8,2.95 -1.83,3.16 -11.84,19.9 -12.04,20.93z"/>
   <path fill="#FEFEFE" d="M21.44 26.98l5.36 0c-0.05,-0.25 -0.25,-0.54 -0.36,-0.73l-4.68 -0.02c-0.21,-0.33 -0.43,-0.73 -0.61,-1.06 -0.63,-1.09 -0.67,-0.51 0.9,-3.24 1.02,-1.76 1.09,-1.48 0.65,-2.2 -0.19,-0.33 -0.4,-0.71 -0.61,-1.05 -0.19,-0.31 -0.21,-0.44 0.3,-1.11 0.19,0.1 1.47,2.43 1.7,2.82 0.5,0.88 4.91,8.43 4.96,8.66l-25.95 0.01c-0.13,0.32 -0.27,0.42 -0.34,0.74l27.55 0c-0.11,-0.48 -6.59,-11.45 -7.62,-13.3 -0.2,-0.36 -0.12,-0.29 -0.32,-0.41l-1.16 2c-0.33,0.59 0.77,1.52 0.89,2.11 0.07,0.34 -2.22,3.74 -2.24,4.11 -0.01,0.13 1.31,2.56 1.58,2.67z"/>
   <path fill="#FEFEFE" d="M11.84 19.6l2.69 0.03 1.1 -1.89c1.12,-0.09 3.4,0.02 4.7,-0.02 0.32,-0.49 0.76,-1.27 1.06,-1.81 0.15,-0.27 0.5,-0.69 0.4,-0.98 -0.05,-0.15 -0.43,-0.75 -0.54,-0.94l-1.84 -3.19c-0.12,-0.21 -0.17,-0.35 -0.35,-0.45 -0.39,0.85 -0.56,0.39 0.18,1.65l1.42 2.46c0.53,0.91 0.36,0.45 -0.75,2.51l-4.71 0.01 -1.09 1.89 -0.94 0.01c0.05,-0.3 4.17,-7.33 4.92,-8.62 0.29,-0.49 1.48,-2.63 1.69,-2.88 0.22,0.19 11.23,19.33 12.65,21.84 0.36,0.63 0.2,0.58 1.13,0.58 -0.18,-0.95 -13.7,-23.83 -13.78,-23.89l-7.94 13.69z"/>
   <path fill="#FEFEFE" fill-rule="nonzero" d="M17.85 21.58c0.34,0 0.65,-0.19 0.65,-0.71 0,-0.52 -0.31,-0.72 -0.65,-0.72 -0.35,0 -0.66,0.2 -0.66,0.72 0,0.53 0.32,0.71 0.66,0.71zm-0.38 -0.71c0,-0.36 0.13,-0.45 0.38,-0.45 0.24,0 0.37,0.1 0.37,0.45 0,0.35 -0.13,0.44 -0.37,0.44 -0.24,0 -0.38,-0.08 -0.38,-0.44zm1.18 0.65c0,0.03 0.01,0.04 0.03,0.04l0.48 0c0.34,0 0.65,-0.18 0.65,-0.71 0,-0.52 -0.32,-0.68 -0.65,-0.68 -0.05,0 -0.09,0 -0.13,0l-0.25 0c-0.04,0 -0.08,0 -0.12,0 -0.02,0 -0.03,0.01 -0.03,0.04 0,0.15 0.03,0.2 0.14,0.22 0.07,0.01 0.13,0.01 0.2,0.01l0.13 0c0.25,0 0.43,0.01 0.43,0.42 0,0.33 -0.13,0.43 -0.37,0.43 -0.07,0 -0.15,0 -0.23,0l0 -0.53c0,-0.02 -0.01,-0.04 -0.02,-0.04l-0.23 0c-0.02,0 -0.03,0.02 -0.03,0.04l0 0.76zm1.28 -1.31c0,0.19 0.03,0.23 0.17,0.23l0.76 0c0.02,0 0.03,-0.01 0.03,-0.04l0 -0.19c0,-0.02 -0.01,-0.04 -0.03,-0.04l-0.9 0c-0.02,0 -0.03,0.02 -0.03,0.04zm0.03 1.35l0.9 0c0.02,0 0.03,-0.02 0.03,-0.04l0 -0.19c0,-0.02 -0.01,-0.04 -0.03,-0.04l-0.65 0 0 -0.31 0.65 0c0.02,0 0.03,-0.01 0.03,-0.04l0 -0.19c0,-0.02 -0.01,-0.04 -0.03,-0.04l-0.9 0c-0.02,0 -0.03,0.02 -0.03,0.04l0 0.77c0,0.02 0.01,0.04 0.03,0.04z"/>
   <path fill="#FEFEFE" d="M19.62 18.66l0.41 0.75 -0.52 0.29 -0.34 -0.62 -1.92 0.01 -0.18 0.33 -0.79 1.47 0.97 1.78 1.94 0 0.33 -0.61 0.52 0.28 -0.4 0.72c-0.03,0.05 -0.08,0.23 -0.35,0.2l-2.13 0.01c-0.18,0 -0.27,-0.04 -0.37,-0.23l-1.03 -1.87c-0.17,-0.31 -0.13,-0.32 -0.01,-0.55l0.93 -1.75c0.16,-0.28 0.2,-0.4 0.55,-0.37l2 -0.01c0.2,-0.02 0.33,0.04 0.39,0.17z"/>
  </g>
 </g>
</svg>
